<svg xmlns="http://www.w3.org/2000/svg" viewBox="0 0 540 1000"><g clip-path="url(#a)"><path d="M522.52 562.125c-29.91-40.03-68.97-15.92-108.13-8.57-13.32-9.19-37.05-17.02-71.1-23.47-9.85-10.27-18.84-22.59-27.9-34.98 7.66-2.1 15.63-4.13 24.27-6.04 44.23-9.72 71.88-19.43 82.94-29.15s16.59-20.78 16.59-33.17c0-10.38-3.77-19.35-11.31-26.89q-11.31-11.31-27.9-11.31c-11.06 0-22.62 3.19-33.68 9.55-11.06 6.37-27.98 22.79-50.77 49.26-6.59 7.48-13.6 14.38-20.92 20.86-6.7-7.87-13.8-14.96-21.54-20.79 2.48-10.34 5.4-20.94 9.03-31.99 2.31-7.03 4.29-13.61 6-19.84 4.28-5.34 7.7-9.75 8.9-11.52 13.97-20.49 60.98-57.6 59.06-81.54-2.94-36.89-41.32-42.08-76.15-36.57l11.86-3.95c-18.14-3.57-42.64 3.29-60.91 4.97-48.37 4.41-42.88 7.54-41.96 56.71.62 33.63-2.8 109.99 46 109.61 4.07 13.55 7.04 27.14 8.75 40.81-4.12 3.52-7.05 1.39-17.76 2.09-.05 0-.08.01-.13.01-12.44-9.87-24.76-21.62-36.9-35.65-18.43-21.28-33.86-35.44-46.24-42.47q-18.6-10.56-35.19-10.56c-10.05 0-18.85 3.77-26.39 11.31s-11.31 15.83-11.31 24.88c0 15.76 7.54 29.15 22.62 40.21 9.72 7.04 35.19 14.91 76.4 23.62 5.32 1.06 10.4 2.27 15.4 3.51-3.21 2.03-6.71 4.21-11.09 6.7-23.49 13.35-39.61 19.26-58.54 20.99l2.65-3.19c-13.15-2.49-26-1.14-37.98 2.83-36.57-2.32-54.18-.96-72.67 47.44-7.63 20.04-11.38 61.09 4.79 76.86l7.01-8.41c11.7 41.7 44.49 83.3 87.53 98.74 32.45 11.66 27.49 9.31 48.78-17.46 31.01-39.03 21.11-42.73 15.82-81.41-2.5-18.24-3.73-28.28-2.07-37.46 7.49-7.48 15.82-16.38 25.01-26.7 14.74-16.08 31.99-30.66 51.77-43.73-1.69 16.76-3.52 29.4-5.53 37.95s-6.87 24.13-14.58 46.75c-7.72 22.62-11.56 41.97-11.56 58.06s3.52 26.64 10.56 33.68c10.05 9.72 21.28 14.58 33.68 14.58 9.05 0 17.59-4.6 25.64-13.82 8.04-9.22 12.06-20.52 12.06-33.93 0-14.4-6.03-41.38-18.1-80.93-7.04-22.44-10.89-43.23-11.56-62.33 10.65 7.51 20.34 15.31 29.17 23.37.57 2.98 1.04 6.07 1.31 9.34 3.25 38.09-4.63 96.4 58.62 87.17l-19.36 7.05c5.79-.79 11.51-1.56 17.29-2.35 36.56 42.26 7.85 48.59 69.69 58.55 24.85 4 39.73 12.48 64.87-.86 48.81-25.94 70.26-99.48 35.16-146.41zm-310.5-45.51c3.26-4.71 6.67-9.15 10.23-13.07 3.89 1.64 7.75 3.31 11.36 5.12-7.11 3.01-14.35 5.46-21.59 7.95m31.62-27.58c.47-.1.94-.17 1.4-.24.03.43.1.85.12 1.28-.51-.31-1.02-.72-1.53-1.04z"/></g><defs><clipPath id="a"><path d="M0 0h539.86v1000H0z"/></clipPath></defs></svg>