<svg xmlns="http://www.w3.org/2000/svg" width="535" height="1000" fill="none"><g clip-path="url(#a)"><path fill="#231F20" stroke="#231F20" stroke-miterlimit="10" d="M253.993 473.238q-2.794-49.834-20.493-98.744c-16.457-47.065-24.841-79.672-24.841-97.206 0-24.917 5.9-43.989 17.699-56.908S253.062 201 270.45 201c14.904 0 28.256 6.46 39.434 19.38q16.767 19.379 16.767 55.37c0 21.533-6.52 51.679-19.251 90.438s-20.804 74.443-23.598 107.05c26.703-16.919 50.612-37.222 72.037-61.215 32.913-37.837 57.443-61.523 73.589-70.751s32.293-13.843 48.75-13.843c16.456 0 29.498 5.537 40.365 16.304S535 367.419 535 382.184c0 17.842-8.073 33.53-23.909 47.68S455.2 457.857 390.926 471.7c-37.261 8.305-68.311 17.534-93.152 27.992 25.151 12.92 55.891 22.764 92.531 29.531 58.685 10.459 97.188 23.686 115.197 39.682s27.324 33.223 27.324 51.987c0 14.458-5.589 27.07-16.456 37.529-10.868 10.459-23.599 15.996-38.192 15.996s-30.74-4.922-48.439-15.073-41.608-32.607-71.727-67.675c-19.872-23.686-44.713-45.527-74.21-66.445q1.396 41.067 16.767 89.516c17.388 56.601 26.082 95.36 26.082 115.97 0 19.072-5.899 35.375-17.388 48.603C297.774 792.54 285.354 799 272.002 799c-18.009 0-34.155-7.075-48.749-20.918-10.247-10.151-15.215-26.147-15.215-48.295s5.589-50.756 16.768-83.363 18.319-54.755 21.114-67.06c2.794-12.304 5.589-30.454 8.073-54.447-28.566 18.764-53.717 39.682-74.832 62.753-35.397 39.374-62.101 64.291-80.11 75.057-12.73 7.691-25.772 11.69-39.434 11.69-16.457 0-30.43-5.537-42.229-16.611S0 634.427 0 620.892q0-17.995 14.904-37.836c9.936-13.228 24.84-24.302 44.713-32.915q19.562-8.767 89.425-23.071c30.119-6.152 59.307-15.381 88.184-27.378-26.083-12.919-57.444-23.071-93.773-30.146-59.617-12.612-96.567-23.686-110.54-33.837C11.179 419.713.312 400.641.312 377.878c0-12.92 5.589-24.917 16.456-35.684 10.868-10.766 23.599-16.303 38.192-16.303 16.147 0 32.914 4.922 50.923 15.073q27.014 15.227 67.069 60.907c26.704 30.454 53.718 54.14 81.353 71.059z"/></g><defs><clipPath id="a"><path fill="#fff" d="M0 0h535v1000H0z"/></clipPath></defs></svg>