<svg xmlns="http://www.w3.org/2000/svg" width="421" height="1000" fill="none"><g clip-path="url(#a)"><path fill="#231F20" stroke="#231F20" stroke-miterlimit="10" d="M216.467 963.781h-19.072c-1.316-149.228-6.796-269.53-16.442-360.469-7.234-68.149-19.072-132.793-35.514-194.149 17.538-15.12 30.034-30.898 37.487-47.771s12.277-41.415 14.469-74.066c-22.361 2.411-44.94 8.327-67.739 17.969-35.953 15.12-62.26 22.571-78.7 22.571q-23.02 0-37.487-13.806Q-1 300.255-1 279.219c0-14.025 5.042-26.515 15.126-36.157s22.8-14.682 37.706-14.682c8.55 0 16.442 1.096 23.676 3.068 3.727 1.096 21.703 8.546 53.928 22.571 20.607 8.984 43.187 14.024 67.74 15.339-.439-14.024-1.535-24.543-3.508-31.774-2.411-10.518-7.453-25.419-15.345-44.264-18.415-43.826-27.841-77.134-27.841-99.704 0-19.941 5.699-35.938 16.88-48.21C178.542 33.137 192.134 27 207.917 27c14.469 0 27.403 6.355 38.802 19.283 11.4 12.93 17.319 28.707 17.319 47.552 0 10.299-1.315 20.598-4.165 30.897-3.508 13.367-11.181 34.842-23.457 64.424s-18.853 56.317-20.387 80.421c24.333-1.972 46.913-7.231 67.739-15.339 33.979-13.367 53.709-20.818 59.189-22.132 7.454-1.972 15.346-3.068 23.019-3.068 16.441 0 29.814 4.821 39.898 14.462S421 264.975 421 279.438c0 14.462-5.042 25.419-15.126 34.841s-22.799 14.463-37.706 14.463c-18.853 0-47.133-8.108-84.839-24.104-16.441-6.793-28.279-11.176-35.513-12.929-7.235-1.753-17.757-3.068-31.787-4.163 1.753 32.212 6.357 56.973 14.03 74.504 7.672 17.53 20.168 33.308 37.267 47.332-16.441 62.671-27.841 124.904-34.417 186.699-6.577 61.794-12.058 184.507-16.88 367.919z"/></g><defs><clipPath id="a"><path fill="#fff" d="M0 0h421v1000H0z"/></clipPath></defs></svg>