<svg xmlns="http://www.w3.org/2000/svg" viewBox="0 0 469 1000"><g clip-path="url(#a)"><path d="M420.78 535.41c74.06-33.39-21.77-70.43-40.76-85.53q-14.97-10.53-17.4-29.22c-12.18-10.38-26.86-14.5-36.56-27.45-14.41-19.29-15.12-51.42-28.42-71.84 1.41-2.02 2.72-3.99 3.76-5.74 5.19 1.94 11.01 4.22 17.82 7.06 36.86 15.76 64.51 23.62 82.94 23.62 14.74 0 27.06-4.69 36.94-14.07 9.89-9.38 14.83-20.78 14.83-34.18 0-14.07-4.94-25.8-14.83-35.19-9.89-9.38-22.87-14.07-38.96-14.07a85.6 85.6 0 0 0-22.62 3.02c-5.36 1.34-24.63 8.55-57.8 21.61-16.07 6.32-33.22 10.71-51.36 13.31 2.31-4.69 5.05-9.41 8.66-14.17 23.06-30.49 67.92-68.56 14.73-104.01l19.11 7.71c-4.83-3.29-9.6-6.54-14.42-9.82.94-48.26 20.06-44.09-.06-73.46-2.79-8.45-7.07-16.12-13.1-22.87-3.7-4.15-7.62-7.35-11.64-10.13-8.79-12.03-17.22-21.57-36.65-26.42-53.63-13.37-118.77 26.96-124.06 85.32-6.33 69.41 84.14 57.82 106.02 112.39 4.76 11.88 6.02 25.35 5.78 39.53-20.72-8.12-34.14-16.14-46.25-27.99l4.15-.05c-6.63-11.62-15.98-20.54-26.77-27.08-21.96-29.35-34.42-41.9-83.25-24.55-20.22 7.18-53.89 30.94-55.4 53.5l10.93-.12C2.02 280.5-8.37 332.4 7.78 375.16c12.17 32.28 10.74 26.97 44.92 25.79 49.83-1.67 46.21-11.61 72.23-40.73 24.98-27.95 27.42-30.03 63.55-35.42 4.18-.62 9.41-1.67 15.18-2.84.39 3.5.81 7.21 1.25 11.33 2.03 19.26 6.05 37.41 10.48 55.19-7.44 12.77-17.82 25.03-31.4 36.75 15.95 59.49 27.43 122.3 34.48 188.37-14.27 42.4-12.31 79.83-22.19 123.84-10.2 45.36-5.67 80.27 35.53 86.79 1.47 44.47 2.48 92.29 2.95 143.86h18.6c1.39-53.06 2.85-100.77 4.38-143.43 53.32-6.07 67.38-70.29 68.63-117.01l18.84 42.31c13.54-42.81 21.22-96.58 62.44-125.35 23.35-16.3 45.55-8.18 56.75-39.33 12.92-36.13-7.44-49.63-43.62-49.87"/></g><defs><clipPath id="a"><path d="M0 0h468.31v1000H0z"/></clipPath></defs></svg>