<svg xmlns="http://www.w3.org/2000/svg" viewBox="0 0 538 1000"><g clip-path="url(#a)"><path d="m191.6 366.52 14.68 9.9c-4.2-4.43-8.92-8.03-14.68-9.9"/><path d="M449.65 120.401c-51.37-4.68-58.41 43.63-80.71 77.94-13.68-40.01-34.81-80.15-45.08-119.2C294.34-33.27 189.95 39 170.17 95.66c-6.54 18.77-4.86 70.67.18 118.49-12.16-4.36-22.86-7.45-32.2-9.36-21.05-16.68-55.06-57.85-77.49-56.06-36.88 2.95-42.08 41.33-36.57 76.16l-3.95-11.86c-3.57 18.14 3.29 42.63 4.98 60.91 4.4 48.37 7.53 42.88 56.7 41.96 26.98-.5 81.33 1.52 101.64-22.82.9 3.15 1.8 5.97 2.7 8.2 8.11 7.39 15.51 15.44 22.18 24.13.81 3.43 1.36 6.89 1.94 10.36-2.34 1.92-4.59 3.82-7.19 5.77 3.26 3.62 6.21 7.27 9.07 10.93.03.64.14 1.28.17 1.92 6.67 12.65 11.74 20.74 18.36 27.78.58 1.23 1.01 2.47 1.54 3.7l-25.98-17.52c15.09 15.94 22.45 43.93 37.57 53.91 5.23 22.55 8.01 47.48 8.01 75.1 0 38.54-5.19 73.06-15.58 103.55-6.7 19.78-17.76 39.88-33.17 60.32 16.75 13.07 28.23 24.88 34.43 35.44 3.63 6.17 6.64 14.24 9.18 23.8-1.71-1.12-3.42-2.16-5.14-3.46-30.49-23.06-68.56-67.91-104.01-14.73l7.71-19.1c-3.29 4.83-6.54 9.6-9.82 14.42-55.87-1.09-41.37-26.66-90.13 12.64-19.6 15.8-35.85 21.19-42.75 48.8-13.37 53.63 26.96 118.76 85.32 124.06 69.41 6.33 57.82-84.14 112.39-106.02 12.05-4.83 25.73-6.06 40.14-5.78-6.15 12.83-12.88 22.5-21.68 31.49l-.05-4.15c-11.62 6.63-20.54 15.98-27.08 26.77-29.35 21.96-41.9 34.42-24.55 83.24 7.18 20.22 30.94 53.89 53.5 55.4l-.12-10.93c35.99 24.13 87.89 34.53 130.65 18.37 32.28-12.17 26.97-10.74 25.79-44.92-1.67-49.83-11.61-46.21-40.73-72.23-27.95-24.98-30.02-27.42-35.41-63.55-.61-4.11-1.64-9.24-2.78-14.89 9.42.67 18.73.98 27.69.41 4.44 1.67 9.09 3.47 14.19 5.58 28.82 12.39 50.1 18.6 63.84 18.6s24.46-4.36 33.17-13.07c8.71-8.72 13.07-19.78 13.07-33.17s-4.36-23.29-13.07-31.67c-8.71-8.37-19.94-12.57-33.68-12.57-16.42 0-38.87 5.86-67.36 17.59-8.73 3.56-15.96 6.42-21.85 8.65-7.58-.44-15.14-.67-22.72-1.34-1.71-20.75.82-39.76 15.91-45.71-.69-.79-5.1-4.23-9.65-7.43 5.73-6.45 12.75-13.27 21.23-20.52q-26.145-38.7-36.69-73.14c-7.04-22.95-10.56-51.19-10.56-84.7 0-35.86 3.69-65.67 11.06-89.47.07-.24.18-.47.25-.71 12.41-13.78 16.51-40.7 30.2-52.53 20.02-17.28 33.51-7.61 50.66-34.66 12.16-.24 24.4-6.87 36.35-24.8l-7.71 19.1c3.29-4.83 6.54-9.6 9.82-14.42 55.87 1.09 41.37 26.66 90.13-12.65 19.6-15.8 35.85-21.19 42.75-48.8 13.37-53.64-26.96-118.77-85.32-124.06z"/></g><defs><clipPath id="a"><path d="M0 0h537.55v1000H0z"/></clipPath></defs></svg>