<svg xmlns="http://www.w3.org/2000/svg" width="375" height="1000" fill="none"><g clip-path="url(#a)"><path fill="#231F20" stroke="#231F20" stroke-miterlimit="10" d="M196.929 255.739C199.5 277.834 204 294.351 210 305.077s17.357 22.739 34.071 36.253c-16.714 24.455-28.714 48.695-36.214 72.506s-11.143 53.629-11.143 89.453c0 33.464 3.429 61.78 10.5 84.733 7.072 22.953 19.286 47.408 36.643 73.15-16.071 13.728-27.214 25.956-33.428 36.896-6.215 10.94-10.715 27.029-13.715 48.48 13.072-1.93 22.5-3.861 28.286-5.577q8.679-2.574 36-13.515c28.5-11.798 51-17.59 67.286-17.59 13.714 0 24.857 4.291 33.643 12.657C370.714 730.889 375 741.4 375 754.271c0 13.3-4.286 24.455-13.071 33.25s-19.715 13.085-33.215 13.085-34.928-6.221-63.857-18.663c-15.428-6.435-27.857-10.726-37.071-13.085-7.072-1.716-17.357-2.789-31.072-3.432 2.572 20.378 4.929 33.893 6.429 40.543s5.143 15.874 10.5 27.887q25.071 55.344 25.071 82.373c0 15.016-4.928 27.673-14.571 37.755S202.286 969 187.929 969c-14.358 0-25.929-5.148-35.572-15.66-9.643-10.511-14.571-23.382-14.571-38.612 0-7.723 1.071-16.089 3.214-24.884s8.786-28.101 19.929-57.49c8.142-21.88 13.285-43.975 15.642-66.928-15 .643-26.785 1.93-35.357 4.075s-21 6.65-37.5 14.158c-25.5 11.37-44.357 17.162-56.785 17.162-13.715 0-24.858-4.076-33.215-12.228-8.357-8.151-12.643-18.877-12.643-31.963 0-13.728 4.5-24.883 13.286-33.464s20.572-12.871 34.929-12.871c13.285 0 32.357 5.363 56.785 16.089 16.5 7.079 29.143 11.584 38.143 13.514 7.072 1.717 17.786 2.789 32.143 3.433-3-20.379-7.714-36.039-13.714-46.55s-17.572-22.31-34.5-35.395c15.428-20.379 26.357-40.543 33.214-60.279C171.643 570.646 177 536.109 177 497.497c0-38.613-5.357-74.008-16.071-102.967-6.429-18.019-17.143-35.61-32.572-52.771 16.072-12.013 27.214-23.596 33.429-34.537 6.214-10.94 11.143-27.887 14.785-51.054-13.714 1.072-23.571 2.359-29.357 3.861s-20.357 6.865-43.5 16.089-42.857 13.729-59.357 13.729c-12.643 0-23.357-4.291-31.714-12.657S0 258.313 0 245.442s4.071-22.738 12.214-30.89 18.643-12.227 31.286-12.227c15.429 0 37.286 5.792 65.786 17.161 17.143 7.079 29.785 11.584 38.143 13.514 6 1.716 15.642 3.003 28.714 4.076-.643-14.372-1.929-24.884-4.072-31.748-3.642-13.3-11.142-34.966-22.5-64.784Q138.964 113.838 138 110.298q-1.929-9.01-1.929-22.524c0-16.732 4.929-30.247 14.572-40.543C160.286 36.933 172.5 32 186.857 32S213 36.934 222 46.587s13.5 24.026 13.5 43.332c0 10.297-.857 18.877-2.786 25.742-1.928 6.864-7.928 21.88-18 45.477s-16.285 49.124-18.428 76.153c14.785-1.073 25.285-2.36 31.714-3.862 6.429-1.501 19.071-6.221 38.143-14.372 25.5-11.155 46.5-16.518 63.214-16.518 13.286 0 24.214 4.076 32.572 12.227 8.357 8.152 12.642 18.663 12.642 31.32s-4.285 23.811-13.071 32.177-20.143 12.656-34.071 12.656c-15.643 0-36.858-5.577-63.215-16.517-17.143-7.723-28.928-12.442-35.571-14.158-6.643-1.717-17.357-3.004-32.143-4.076z"/></g><defs><clipPath id="a"><path fill="#fff" d="M0 0h375v1000H0z"/></clipPath></defs></svg>