<svg xmlns="http://www.w3.org/2000/svg" width="373" height="1000" fill="none"><g clip-path="url(#a)"><path fill="#231F20" stroke="#231F20" stroke-miterlimit="10" d="M115.077 315.034c-23.53-25.984-40.112-49.504-50.196-70.784s-15.013-43.009-15.013-65.185q0-61.488 43.024-104.833C121.575 45.336 156.981 31 198.885 31c38.543 0 70.363 11.648 95.237 35.168s37.646 50.177 37.646 80.417c0 13.664-4.482 25.76-13.669 36.288-6.723 7.392-15.91 10.976-27.787 10.976s-21.736-4.032-29.355-12.096-11.653-17.472-11.653-28.448c0-5.152 1.345-14.56 4.258-27.776 1.793-8.064 2.689-15.68 2.689-22.624 0-14.336-5.154-26.209-15.238-35.617s-24.201-14.112-42.128-14.112c-25.546 0-47.282 8.96-64.761 26.88s-26.442 39.649-26.442 65.185c0 22.4 4.706 40.992 14.117 55.552q23.53 36.625 79.327 77.281 105.544 76.273 144.535 136.417C363.812 443.164 373 473.18 373 504.764s-9.188 63.617-27.787 95.649-47.954 59.808-88.29 84.001c24.426 26.88 41.456 50.176 50.644 69.888s13.893 40.768 13.893 63.617c0 42.784-14.341 78.4-43.024 107.073S214.347 968 172.443 968c-37.871 0-69.243-12.096-94.34-36.064-25.098-23.969-37.647-51.297-37.647-82.209 0-12.992 4.033-23.968 12.325-32.704 8.29-8.736 17.703-13.44 28.683-13.44s20.168 4.032 27.786 12.32 11.653 19.264 11.653 33.376c0 9.408-1.345 19.936-4.258 31.136s-4.257 19.936-4.257 25.984c0 10.081 4.481 18.593 13.221 25.089 13.669 10.528 30.251 15.68 49.971 15.68 23.529 0 44.817-9.184 63.865-27.328 19.047-18.145 28.683-38.081 28.683-59.361s-5.378-41.216-16.359-58.24c-16.806-26.209-47.282-56.001-91.427-89.153Q61.52 639.501 25.89 583.389C7.963 554.94-1 524.924-1 493.116s9.412-64.065 28.459-95.201 48.179-58.912 87.618-82.657zm16.806 16.353c-52.884 31.808-79.326 70.784-79.326 116.481 0 24.416 6.498 47.04 19.495 67.648 18.151 28.448 52.66 61.825 103.528 100.353 24.425 18.592 45.938 36.288 64.089 53.088 53.556-32.48 80.447-71.008 80.447-115.585 0-22.848-7.619-46.368-23.081-71.232s-47.058-55.777-95.013-93.185q-43.024-32.928-69.915-57.792z"/></g><defs><clipPath id="a"><path fill="#fff" d="M0 0h373v1000H0z"/></clipPath></defs></svg>