<svg xmlns="http://www.w3.org/2000/svg" viewBox="0 0 632 1000"><g clip-path="url(#a)"><path d="M631.27 480.65c-2.79-14.78 1.1-8.18-8.55-16.94-15.08-13.74-32.34-3.66-50.08-7.93-7.05-1.69-10.34-7.67-18.12-9.45-8.45-1.93-15.43 1.83-24.09-1.32-10.48-3.83-20.45-15.93-29.44-21.96-6.21-4.17-9.03-2.63-12.97-5.23-2.28-4.31-4.69-8.6-7.38-12.85-.82-1.27-1.85-2.59-2.71-3.86-1.17-4.87-1.54-9.96-.95-14.15 1.54-10.81 11.81-22.81 19.62-31.96 16.33-19.12 32.78-37.32 42.65-59.81 15.63-35.56-21.6-26.46-46.68-20.07-25.89 6.59-43.25 28.98-66.23 41.44-7.32 3.97-13.65 6.4-19.9 7.94-18.66-16.11-39.92-32.83-64.03-50.22-10.33-7.5-19.69-14.9-28.29-22.2.32-3.84.62-7.36.8-10.33 1-16.58 8.72-25.16 8.68-42.49-.04-20.16-1.66-24.88-15.97-34.09-13.65-8.79-12.47-10.65-29.02-2.35-9.86 4.95-15.61 9.96-21.29 16.6-2.81-9.67-4.37-20.36-4.37-32.32 0-24.46 8.46-45.24 25.38-62.33 16.91-17.09 37.61-25.64 62.08-25.64 17.09 0 30.48 4.52 40.21 13.57 9.72 9.05 14.58 20.44 14.58 34.18 0 6.71-.84 13.91-2.51 21.61-2.69 12.74-4.02 21.61-4.02 26.64 0 10.39 3.69 19.44 11.06 27.14 7.36 7.71 16.75 11.56 28.15 11.56s20.27-3.52 26.64-10.56c8.71-10.05 13.07-21.61 13.07-34.68 0-28.82-11.99-54.45-35.94-76.91C407.69 49.24 377.28 38 340.42 38c-40.21 0-74.07 13.82-101.54 41.47-27.48 27.65-41.22 61.07-41.22 100.28 0 18.69 3.96 37.11 11.45 55.26-3.49 2.61-7.21 5.38-11.39 8.94-38.7 33-52.47 79.31-72.56 124-11.22 24.98-28.85 39.29-55.69 46.52-7.02 1.89-9.74 5.61-19.13 6.86-5.95.8-12.6-1.28-18.53-.38C20.94 422.62-.45 430.21 0 444.81c6.55 4.39 20.29 15.14 27.05 17.37 8.18 2.69 15.27-.67 23.52 1.26 11.18 2.6 12.54 8.45 25.56 9.18 13.98.79 21.02-.58 34.36 6.12 15.34 7.71 20.57 21.3 34.96 29.91 1.87 1.12 4.37 2.49 7.12 3.75 1.94 9.3 4.69 18.44 8.35 27.41-1.2 5.56-.34 11.72.57 17.86-11.98 2.07-24.55 9.88-37.87 25.36-37.27 43.32 1.1 99.78 35.1 133.69l-43.68-15.39c21.78 39.19 55.56 81.67 48.12 131.28-4.21 28.1-25.37 38.61-10.44 68.11 17.36 34.17 41.15 28.68 66.2 2.63-24.4 70.1 51.13 39.22 82.54 30.88q6.51.54 13.29.54c5.36 0 10.59-.29 15.72-.77 4.03 1.39 7.98 3.23 11.77 5.98 15.91-1.7 28.99-9.51 45.07-7.64 26 3.04 51.9 28.52 78 29.68 17.67.76 41.55-7.51 55.94-18.92 36.51-28.98 27.53-30.86-7.16-57.39-21.43-16.37-43.93-28.58-66.09-40.77 6.26-16.46 9.49-34.4 9.49-53.92 0-21.79-4.45-42.06-13.32-60.82-8.88-18.77-25.06-41.04-48.51-66.85 5.58-3.35 10.87-6.8 16.01-10.3 1.32.24 2.68.34 4 .61q3.03 6.255 9.99 7.08c8.22 2 18.06-2.03 26.44-.65 10.92 1.83 23.52 5.28 34.2 8.51 21.49 6.51 44.97 15.59 65.97 24.82 1.07-14.8 13.48-19.93 17.19-33.03 3.86-13.68-4.8-22.1-7.08-33.81-1.72-8.82.79-16.78-1.53-25.91-1.72-6.75-5.48-9.16-6.85-16.84-2.52-14.15.06-41.39 13.75-50.17 9.62-6.16 25.49-4.13 35.79-11.9 4.88-3.69 7.63-9.39 12.31-13.31 8.31-6.96 10.74 1.67 15.84-10.15.56-1.27-.09-15.66-.46-17.65zm-344.08 93c-32.08-26.78-54.97-50.69-68.42-71.67-12.4-19.77-18.6-41.38-18.6-64.84 0-8.18 1.17-16.04 2.93-23.75 8.35-.9 17.56-.75 26.77-.76 22.36-.01 57.25-7.26 77.86-.4 21.73 7.22 32.57 42.44 41.68 60.19 10.39 20.3 26.71 38.1 34.26 59.99 8.59 24.99 17.59 52.59-17.24 59.99-25.65 5.46-48.14-6.78-69.3-15.43-3.24-1.33-6.57-2.39-9.93-3.34zm118.26 246.11c-10.38-6.88-20.48-14.33-30.04-23.02-28.7-26.05-51.04-44.25-68.42-82.31-6.43-14.07-13.88-26.06-21.81-37.23 5.86 4.55 11.77 9.11 18.03 13.78 42.22 31.84 71.38 60.32 87.46 85.45 8.24 13.04 13.08 27.53 14.78 43.33"/></g><defs><clipPath id="a"><path d="M0 0h631.27v1000H0z"/></clipPath></defs></svg>