<svg xmlns="http://www.w3.org/2000/svg" viewBox="0 0 550 1000"><g clip-path="url(#a)"><path d="M531.39 334.768c-17.53-31.19-43.17-55.1-59.76-86.89-9.34-17.93-10.54-39.33-16.63-56.67-7.45-21.26-13.63-43.03-21.46-64.27-1.69-4.58-3.77-8.86-5.77-13.21v-11.69h66.85v-27.65h-91.17c-22.97-28.41-53.57-50.03-87.93-65.02-25.38-11.08-67.57-11.78-96.27-4.99-8.78 2.07-19.77 6.82-28.74 9.62-8.14 2.56-21.58 4.17-28.77 6.89-12.98 4.89-19.96 16.38-27.82 27.05-13.86 18.84-23.73 36.08-27.04 58.57-26.66 16.19-48.75 37.92-65.65 65.9-14.41 23.46-21.61 53.62-21.61 90.48 0 17.69 2.04 34.49 5.9 50.52-16.99 18.83-23.93 38.06-23.74 66.36.03 5.83-3.5 25.33-.69 30.4 6.06 10.84 8.18 4.5 19.37 7.04 19.2 4.33 37.6 12.64 54.67 21.76 13.87 7.42 22.33 12.32 28.15 27.82 5.55 14.86 9.62 31.79 11.18 47.58 2.99 30.65-8.86 72.62.09 101.76 7.71 25.05 46.07 36.67 69.1 26.55 14.48-6.38 29.61-34.62 33.03-48.36 3.45-13.84 6.98-22 11.95-35.31 10.52-28.01 14.6-57.41 27.75-84.43 1.42-2.91 2.92-5.57 4.49-8.05v511.63h36.69v-139.28c13.24 34.28 30.01 68.53 38.8 101.98 29.52 112.412 133.91 40.14 153.69-16.52 11.68-33.53-2.83-172.77-16-205.63a185 185 0 0 1-22.18-24.13q-3.39-14.31-3.99-28.98c-7.24-13.71-12.64-22.06-20.13-29.53v-2.1l26.2 17.67c-10.81-11.41-17.67-28.96-26.2-41.77v-200.79c21.87-1.5 43.79-3.63 64.67-3.43 15.27.14 46.62-1.03 54.99-18.4 7.02-14.57-9.24-40.38-16.03-52.47zm-184.12 324.54c-19.64 16.96-33 8.03-49.69 33.23v-263.62c1.3-1.33 2.6-2.6 3.91-4.05 10.24-11.32 16.73-30.31 12.15-45.58-2.54-8.51-8.44-14.96-16.06-17.81v-112.23c7.16 6.7 13.27 15.77 18.19 24.24 10.35 17.79 6.85 37.8 6.85 59.41 0 33.97-4.2 68.86 37.1 75.26 10.36 1.6 21.03 2.23 31.85 2.29v186.72c-2.73 1.23-5.61 2.8-8.72 4.83-16.93 11.08-20.09 43.91-35.59 57.31z"/><path d="m468.64 660.29-14.68-9.9c4.2 4.43 8.92 8.03 14.68 9.9"/></g><defs><clipPath id="a"><path d="M0 0h549.14v1000H0z"/></clipPath></defs></svg>