<svg xmlns="http://www.w3.org/2000/svg" viewBox="0 0 592 1000"><g clip-path="url(#a)"><path d="M504.03 499.47c-44.39-4.05-55.68 31.47-72.3 63.34l25.69-125.9c19.69-4.77 46.09-13.45 60.83-24h37.05V372.7h-10.38c4.42-12.76 6.32-26.05 2.88-36.31-8.54-25.58-31.9-34.27-55.55-42.89-1.95 3.02-4.57 5.67-7.56 8.08L517.59 144h-41.72L439 316.93c-52.98 5.29-125.51-13.11-142.12-41.89-4.91-8.53-8.92-20.41-12.93-33.51L303.46 144h-41.72l-5.41 27.05c-8.31-12.21-18.85-20.91-33.25-22.48-10.92 26.52-6.43 69.44.47 95.69 3.28 12.44 9.27 16.36 13.18 24.78l-14.21 71.05c-2.16 9.08-4.66 19.06-5.81 29.05l-.71 3.57H77.79v40.21h128.68l-25.78 128.13c-10.11 6.89-22.81 13.09-38.99 19.1C94.4 577.72 39.92 591.29 0 620.44c25.77-1.6 52.12-2.52 77.79-.69v6.79h41.88c12.5 4.13 34.96 11.83 38.07 12.92 1.08.38 2.09.76 3.13 1.14L117 855.25h41.72L197.19 671c12.45 25.07 11.95 63.11 26.38 88.46 12.87 22.59 41.76 40.49 64.15 45.62 20.61 4.73 38.89 3.57 53.9-2.3l-10.49 52.47h40.71l31.24-152.84c16.96 6.18 34.41 3.18 51.28-22.13l-7.71 19.1c3.29-4.83 6.54-9.6 9.82-14.42 55.87 1.09 41.37 26.66 90.13-12.65 19.6-15.8 35.85-21.19 42.75-48.8 13.37-53.63-26.96-118.77-85.32-124.06zm-158.46-41.74c22.35-8.83 45.48-11.19 68.52-13.81l-29.68 141.41h-20.35c-18.47-40.18-38.09-82.41-18.49-127.6"/></g><defs><clipPath id="a"><path d="M0 0h591.92v1000H0z"/></clipPath></defs></svg>