<svg xmlns="http://www.w3.org/2000/svg" viewBox="0 0 546 1000"><g clip-path="url(#a)"><path d="M545.21 496.019c-6.98-24.94-20.52-17.73-38.06-32.43-17.58-14.73-33.59-33.85-52.13-47.55-15.8-20.12-40.11-45.11-73.26-75.14-34.04-30.83-60.37-57.98-79.17-81.52 3.59-11.22 7.26-21.84 9.63-31.19 15.67-61.79-18.16-123.82-82.98-138.47-24.16-5.48-51.87 2.35-72.55 20.52-31.08 27.29-25.52 51.58-25.19 90.85.3 36.77-.21 73.58 0 110.39.02 3.23.23 6.82.49 10.52-12.1 11-26.14 23.06-42.26 36.25-34.01 27.82-58.56 55.63-73.64 83.44C5.35 461.449 0 483.729 0 508.529c0 29.83 10.88 55.63 32.67 77.41 21.78 21.79 47.75 32.67 77.91 32.67 27.81 0 52.85-7.96 75.15-23.88 8.55-6.11 16.41-13.76 23.9-22.22 5.21 8.38 13.61 12.82 15.73 23.09 4.75 23.01-9.55 36.43-18.02 55.13v-51.54c-.9 60.15-7.33 83.97-64.51 105.2-29.21 10.85-61.69 19.89-90.12 33.71-1.17.01-2.27.13-3.46.13l-.34 1.82c-8.58 4.37-16.81 9.14-24.35 14.65 7.22-.45 14.5-.83 21.79-1.11l-.61 3.24h66.06c1.93.32 3.91.45 5.82.83 2.36.47 35.11 11.69 38.62 12.92 12.94 4.52 22.63 9.24 30.51 21.62 13.1 20.59 11.47 55.77 24.42 78.52 10.74 18.84 34.86 33.8 53.54 38.09 44.41 10.18 76.05-12 80.44-51.77 2.45-22.11 5.52-65.8.56-86.87-1.04-4.42-2.46-8.87-4.04-13.34h102.17l-3.52-18.6c-45.92-3.02-82.62-12.82-110.08-29.4-4.71-2.85-8.91-6.12-13.18-9.33-10.24-25.7-16.29-52.45-4.08-80.59 8.74-3.45 17.62-5.65 26.57-7.31 12.74 4.65 25.89 7 39.45 7 30.16 0 55.96-10.72 77.41-32.17 17.59-17.6 27.86-38.76 31.01-63.37 15.03 9.93 29.44 18.08 35.66 17.32 22.09-2.67 27.79-24.15 22.13-44.37z"/></g><defs><clipPath id="a"><path d="M0 0h545.21v1000H0z"/></clipPath></defs></svg>