<svg xmlns="http://www.w3.org/2000/svg" viewBox="0 0 634 1000"><g clip-path="url(#a)"><path d="M565.79 509.554c-6.18-13.78-18.6-38.15-22.09-51.09-.15-.56-.22-1.15-.36-1.71 26.81-36.41 45.71-66.85 56.68-91.31q21.87-48.75 21.87-94.5c0-34.18-12.65-63.66-37.95-88.47-22.23-21.79-48.81-33.99-79.71-36.63-3.1-5.95-9.09-9.39-20.39-8.46 8.69-.71-8.08 7.45-14.83 9.83-.84.14-1.7.22-2.53.37.13-.21.43-.5 1.16-.99-.45.31-.96.7-1.42 1.03-26.11 4.91-49.8 17.66-71.03 38.38-6.1 6-11.71 12.92-16.95 20.55-13.44-6.35-29.23-11.23-37.55-20.85-17.37-20.12-7.48-33.64-35.04-50.91-79.54-49.87-165.36 18.7-246.5 40.02-112.41 29.52-40.14 133.91 16.52 153.69 1.88.65 4.19 1.2 6.69 1.69.66 2.12 1.2 4.24 1.94 6.36 6.87 19.6 18.01 41.14 33.43 64.59 2.95 4.53 7.63 11.24 13.66 19.65-7.52 5.75-12.82 13.46-21.05 19.01-11.27 7.59-31.65 23.82-46.7 23.77 11.97-2.13 40.38 8.48 52.73 11.87 16.11 4.43 37.57 22.42 50.17 33.47 27.15 23.79 42.35 66.43 58.81 98.98 18.56 36.75 39.32 89.43 51.29 129.8 2.07 7.02 7.56 22.83 9.06 28.87 2.93 11.74 9.79 25.26 12.07 34.56 5.19 21.2 7.83 57.3 23.22 73.28 9.32 9.65 14.57 8.31 27.64 9.01 23.92 1.27 23.46-3.32 24.41-24.86 1.03-24.02-.24-48.47-.24-72.53s.07-47.58 0-71.39c0-1.83 0-3.77-.01-5.65 6.44-14.72 13.44-29.25 21.41-43.43 15.25-27.04 36.08-58.72 62.31-94.9 3.86.1 7.75.1 11.82-.74 15.27-3.17 18.52-16.88 37.69-13.62 10.55 1.79 13.1 10.4 23.32 13.62 6.92-.29 13.83-.73 20.73-1.33 2.9 2.75 4.85 6.09 5.83 10.05 14.56 3.79 28.78 2.43 43.42 5.36 11.47 2.3 17.76 12.42 34.7 9.92-28.64-22.63-53.96-52.54-68.21-84.34z"/></g><defs><clipPath id="a"><path d="M0 0h634v1000H0z"/></clipPath></defs></svg>