<svg xmlns="http://www.w3.org/2000/svg" viewBox="0 0 558 1000"><g clip-path="url(#a)"><path d="M494.22 374.29c-1.86-30.13-4.15-60.37 1.94-88.76q6.255-3.03 7.08-9.99c2-8.22-2.03-18.06-.64-26.44 1.83-10.92 5.28-23.52 8.51-34.2 6.51-21.49 15.58-44.97 24.82-65.97-14.8-1.07-19.93-13.48-33.03-17.19-13.68-3.86-22.1 4.81-33.81 7.08-8.82 1.71-16.79-.79-25.91 1.53-6.75 1.72-9.16 5.48-16.84 6.85-14.15 2.52-41.39-.06-50.17-13.75-6.16-9.62-4.13-25.49-11.9-35.79-3.69-4.87-9.39-7.63-13.31-12.31-6.96-8.31 1.67-10.74-10.15-15.84-1.27-.56-15.66.09-17.64.46-14.78 2.79-8.18-1.1-16.94 8.55-13.74 15.08-3.66 32.34-7.94 50.08-1.69 7.05-7.66 10.34-9.45 18.12-1.93 8.45 1.83 15.43-1.32 24.09-3.83 10.48-15.93 20.44-21.96 29.44-5.61 8.35-.87 10.57-9.77 17.62-6.52 5.16-18.17 7.55-26.32 6.39-10.81-1.54-22.8-11.81-31.95-19.61-19.12-16.33-37.32-32.79-59.81-42.65-35.56-15.63-26.47 21.6-20.07 46.68 6.59 25.89 28.98 43.25 41.43 66.22 10.09 18.63 10.48 30.87 10.65 51.56.07 7.65-.27 12.38-1.87 18.73-4.28.03-6.65 2.25-7.11 6.62.34 5.87.64 11.75.92 17.63-7.18 25.89-56.03 18.17-77.39 16.88-16.59-1-25.16-8.72-42.49-8.68-20.16.04-24.88 1.66-34.09 15.97-8.79 13.65-10.65 12.47-2.34 29.02 7.02 13.98 13.97 19.75 25.88 28.68 8.98 6.73 17.54 13.92 26.35 20.2 14.24 10.14 17.81 18.98 28.92 32.02 27.83 32.64 65.14 47.55 102.95 63.47 27.87 36.96 52.44 70.6 74 101.25.03.39 0 .8.05 1.19 1.58 10.56 8.85 30.88 22.65 31.62 1.09 1.6 2.32 3.35 3.39 4.93 15.75 23.12 28.15 43.4 37.2 60.82 27.46-48.25 64-102.87 109.58-163.86 56.3-75.06 96.83-125.66 121.64-151.8-17.93-20.06-39.24-45.79-63.73-76.85z"/></g><defs><clipPath id="a"><path d="M0 0h557.95v1000H0z"/></clipPath></defs></svg>