<svg xmlns="http://www.w3.org/2000/svg" viewBox="0 0 724 1000"><g clip-path="url(#a)"><path d="M702.08 394.85c-.1-18.14-5.3-45.38-1.06-62.82 5.9-24.29 33.23-27.98 18.53-56.63 1.39 2.7-70.59-41.08-75.08-42.37-27.02-7.68-56.52 14.8-85.66 17.93-17.15 1.83-36.27 2.05-55.21 1.43-4.99-26.07-17.65-49.06-38.01-68.93-26.98-26.31-60.07-39.46-99.27-39.46s-73.07 13.15-99.52 39.46c-26.47 26.31-39.71 58.73-39.71 97.26 0 13.75 2.08 26.64 6.28 38.7.59 1.7 1.5 3.76 2.29 5.68-58.58 3.26-118.74 42.21-176.52 57.4-105.15 27.62-48.7 120.73 5.4 148.83 6.61 19.89 17.64 37.77 33.37 53.5 27.14 27.14 60.14 40.71 99.02 40.71 30.48 0 60.39-9.55 89.72-28.65 29.32-19.1 54.2-49.43 74.64-90.98.32 10.39.5 18.27.5 23.62 0 19.8-2.69 39.08-7.67 57.92-8.65 6.76-12.7 19.53-13.21 36.4-.55 1.21-1.05 2.43-1.62 3.64-34.77-67.6-68.57 26.81-82.97 45.96-6.75 10.18-16.33 16.27-28.75 18.24-10.05 12.48-13.79 27.27-26.48 37.34-8.35 6.61-19.32 10.58-30.67 14.16-3.71.82-7.3 1.65-11.2 2.47l-.27 1.13c-12.8 4.01-25.21 8.44-34.02 16.52-13.04 11.98-24.09 34.75-26.2 53.02-5.35 46.36 2.34 41.33 45.63 35.52 57.42-7.74 104.83-32.65 160.99-35.37 38.72-1.92 67.38-4.87 106.58 9.72 47.96 17.85 88.02 13.08 136.39 22.47 52.52 10.22 90.74 1.37 86.21-59.46-4.25-57.04-71.3-69.78-119.33-69.67l41.78-20.07c-43.11-12.28-97.03-18.39-126.84-58.74-16.89-22.86-9.35-45.29-40.76-55.57-3.15-1.03-5.9-1.49-8.71-2.05-4.78-22.46-7.62-48.12-8.34-77.22 17.41 29.49 31.99 50.44 43.73 62.83 16.75 17.09 36.26 30.75 58.56 40.97 22.28 10.23 43.8 15.33 64.59 15.33s38.06-3.83 54.88-11.29c3.33 1.07 6.71 2.06 10.23 2.86 24.16 5.48 51.87-2.34 72.55-20.52 31.08-27.29 25.52-51.58 25.19-90.85-.3-36.77.21-73.58 0-110.39zm-230.7-22.64c9.41-13.37 16.81-26.44 22.39-39.26 12.17.98 22.76 4.65 32.48 15.79-1.33.32-2.82.47-4.1.86-5.71 1.68-22.62 9.22-50.77 22.62z"/></g><defs><clipPath id="a"><path d="M0 0h723.84v1000H0z"/></clipPath></defs></svg>